<svg width="1280" height="640" viewBox="0 0 1280 640" fill="none" xmlns="http://www.w3.org/2000/svg">
  <rect width="1280" height="640" fill="#0E1116"/>
  <!-- lockup: mark + "tezt" -->
  <g transform="translate(338 132) scale(1.46)">
    <!-- mark -->
    <g transform="translate(-6 -9) scale(0.66)">
      <path d="M58 129 L104 175" stroke="#F2F4F5" stroke-width="36" stroke-linecap="round" stroke-linejoin="round"/>
      <path d="M104 175 L177 102" stroke="#14B8A6" stroke-width="36" stroke-linecap="round" stroke-linejoin="round"/>
      <path d="M216 63 L205 126 L153 74 Z" fill="#14B8A6"/>
    </g>
    <!-- "tezt" -->
    <g stroke="#F2F4F5" stroke-width="18" stroke-linecap="round" stroke-linejoin="round" fill="none">
      <path d="M185 34 L185 118"/><path d="M170 58 L205 58"/>
      <path d="M222 89 L278 89"/><path d="M280 89 A30 30 0 1 0 270 111"/>
      <path d="M290 58 L334 58 L290 118 L334 118"/>
      <path d="M375 34 L375 118"/><path d="M360 58 L395 58"/>
    </g>
  </g>
  <!-- tagline -->
  <text x="640" y="452" text-anchor="middle" font-family="Helvetica Neue, Helvetica, Arial, sans-serif" font-size="33" letter-spacing="0.3" fill="#9AA3AE">An extremely fast Python test runner, written in Rust.</text>
</svg>
